<svg xmlns="http://www.w3.org/2000/svg" width="522" height="478" viewBox="0 0 522 478" version="1.1"><path d="M 66.289 27.208 C 65.408 28.318, 60.615 36.956, 39.216 76 C 37.257 79.575, 34.909 83.850, 33.998 85.500 C 33.087 87.150, 32.082 89.513, 31.765 90.750 L 31.187 93 67.394 93 C 94.933 93, 103.941 93.299, 105.023 94.250 C 106.051 95.153, 106.022 94.944, 104.917 93.500 C 104.075 92.400, 102.910 90.375, 102.327 89 C 100.942 85.731, 69.048 27.740, 68.068 26.708 C 67.654 26.272, 66.853 26.497, 66.289 27.208 M 178.715 161.196 C 185.503 166.928, 186.697 167.596, 181.547 162.782 C 178.771 160.187, 176.147 158.049, 175.715 158.032 C 175.284 158.014, 176.634 159.438, 178.715 161.196 M 203 181.285 C 203 181.545, 205.569 183.949, 208.709 186.629 C 211.849 189.308, 214.098 190.978, 213.706 190.341 C 212.848 188.943, 203 180.614, 203 181.285 M 238.500 211.481 C 241.250 214.041, 244.400 216.609, 245.500 217.190 C 247.973 218.495, 247.095 217.679, 239.500 211.617 L 233.500 206.828 238.500 211.481" stroke="none" fill="#f70506" fill-rule="evenodd"/><path d="M 65.699 14.143 C 61.901 20.164, 11 113.920, 11 114.895 C 11 115.689, 26.947 116, 67.607 116 C 120.588 116, 124.172 115.891, 123.558 114.291 C 122.667 111.968, 68.925 13.720, 67.957 12.643 C 67.533 12.172, 66.517 12.847, 65.699 14.143 M 66.289 27.208 C 65.408 28.318, 60.615 36.956, 39.216 76 C 37.257 79.575, 34.832 83.976, 33.827 85.780 C 32.822 87.585, 32 89.700, 32 90.481 C 32 91.262, 31.438 92.260, 30.750 92.700 C 30.063 93.140, 28.424 95.525, 27.110 98 C 25.795 100.475, 23.846 103.962, 22.778 105.750 L 20.837 109 66.918 109 C 92.263 109, 113 108.810, 113 108.577 C 113 108.344, 111.088 104.715, 108.750 100.512 C 106.412 96.309, 103.876 91.662, 103.114 90.185 C 99.209 82.620, 68.717 27.389, 68.069 26.708 C 67.654 26.272, 66.853 26.497, 66.289 27.208 M 129.250 120.729 C 126.620 121.650, 128.314 123.851, 137.750 131.767 C 143.113 136.266, 154.700 146.020, 163.500 153.442 C 172.300 160.864, 185.575 171.989, 193 178.165 C 200.425 184.340, 208.300 191.057, 210.500 193.091 C 212.700 195.125, 219.295 200.774, 225.155 205.644 C 231.016 210.515, 241.572 219.337, 248.613 225.250 C 261.037 235.682, 264 237.488, 264 234.627 C 264 233.049, 259.811 229.131, 244.620 216.500 C 238.667 211.550, 226.754 201.554, 218.148 194.288 C 209.542 187.021, 196.875 176.380, 190 170.641 C 183.125 164.902, 175.925 158.767, 174 157.008 C 172.075 155.249, 165.775 149.939, 160 145.208 C 154.225 140.478, 147.008 134.333, 143.961 131.554 C 135.493 123.826, 130.627 120.246, 129.250 120.729" stroke="none" fill="#0a0707" fill-rule="evenodd"/></svg>